<svg version="1" xmlns="http://www.w3.org/2000/svg" width="1472" height="1472" viewBox="0 0 1104.000000 1104.000000"><path d="M524.8 1.5c-.1.1-5 .6-10.8.9-11.5.8-13.2.9-26.5 2.6-4.9.6-11 1.3-13.5 1.6-2.5.3-5.2.7-6 .9-.8.3-3.7.7-6.4 1-2.8.4-5.2.8-5.6 1-.3.2-2.4.6-4.6.9-2.2.4-4.9.8-5.9 1-1.1.3-5.6 1.2-10 2.1-4.4.9-9.3 2-11 2.5-1.6.5-4.1 1.1-5.5 1.4-7.9 1.4-52.5 15.2-61.5 19.1-1.6.7-6.6 2.7-11 4.5C298 60.4 248.8 89.1 208 121.9c-21.2 17-44.7 38.9-62 57.7-52.5 57.1-92.8 125.3-117.4 198.6-4.9 14.6-11.1 36-12.1 41.7-.3 1.9-.8 3.8-1.1 4.2-.2.4-.8 2.7-1.3 5.1-2.5 12.5-5.3 26.6-5.7 28.6-.2 1.2-.8 4.8-1.4 8.1-.6 3.2-1.3 8.3-1.6 11.2-.3 3-.7 5.9-.9 6.6-.2.7-.7 4.5-1 8.5-.4 4-.8 8.4-1.1 9.8-2.5 16.3-2.5 80.8 0 103.5.2 1.6.7 6.6 1.1 11 .4 4.4.8 8.2 1 8.5.2.3.6 3 1 6 .3 3 1 8 1.5 11s1.2 7.3 1.5 9.5c.4 2.2.8 4.7 1 5.5.2.8.7 3.1 1 5 2.1 12.2 11.5 48.2 17 64.7 3.8 11.3 11.5 32.4 13.6 37 1.1 2.4 2.8 6.3 3.9 8.8 1.1 2.5 2 4.7 2 5 0 .8 15.5 32.1 20.2 41 6.4 11.8 17.2 29.6 25.2 41.5 6.8 10.1 24.2 34.1 28.4 39.1 34 40.8 62 68 97.4 95 14.6 11.1 45.7 32.1 46.7 31.5.9-.6.6-36.9-.4-45.6-1.1-9.6-1.3-11.2-2-14-.3-1.4-.7-3.9-.9-5.5-.3-1.7-.8-4.6-1.1-6.5-.4-1.9-.8-4.9-1.1-6.5-.6-3.6-1-5.9-1.8-10.5-.3-1.9-.8-5.1-1.1-7-.2-1.9-.7-4.6-1-6-.3-1.4-.8-3.6-1-5-.8-5.7-6.1-34.7-6.4-35.8-.2-.5-.3-.8-.6-3.7-.2-1.7-.7-4.6-1.1-6.5-.4-1.9-.8-4.2-.9-5-.1-.8-.7-4-1.3-7-.6-3-1.4-6.9-1.7-8.5-.2-1.7-.9-5.5-1.5-8.5-1.3-6.3-1.8-9.1-2.4-12.3-.2-1.2-.9-4.2-1.5-6.6-.5-2.5-.8-4.8-.5-5.2.2-.4 0-1-.5-1.3-.4-.3-1.2-2.5-1.6-4.8-.4-2.4-1-5-1.2-5.8-.2-.8-.5-2.1-.5-2.8-.1-.6-.4-1.2-.8-1.2-.3 0-.6-.8-.7-1.8 0-.9-.3-2.6-.6-3.7-4.2-15-6.9-24.1-8.5-29.3-1.1-3.4-1.8-6.2-1.5-6.2.3 0 0-.7-.7-1.5s-.9-1.5-.6-1.5c.4 0 .2-.9-.4-2.1-.6-1.1-1.3-2.9-1.6-4-1-4.4-1.3-5.6-2.7-9.9-1.8-5.1-11.7-39.6-12.3-42.3-.2-1-.5-2.6-.8-3.5-.3-.9-.8-3.2-1.1-5.1-.3-1.9-.8-3.8-1-4.2-.3-.4-.7-2.2-1-4-.2-1.9-1.2-6.3-2-9.9-.9-3.6-1.6-7.2-1.6-8 0-.8-.4-3.5-1-6-.5-2.5-1.1-5.9-1.5-7.5-.3-1.7-.7-4.2-.7-5.8-.1-1.5-.6-2.7-1-2.7-.5 0-.6-.4-.3-.8s.1-2.6-.4-4.8c-.7-3.5-1.6-9.3-2.5-16.4-.2-1.4-.4-2.5-.5-2.5-.1 0-.3-1.6-.4-3.5-.2-1.9-.7-6-1.1-9-1.3-10.2-2.2-30.2-2.9-65.5-.3-11.6-.5-21-.5-21-.1 0-1-34.4-1.4-51.2-.1-4-.4-7.3-.7-7.3-.3 0-.6-1.5-.6-3.3-.2-5.4-1.3-15.8-1.9-16.7-.3-.5-.8-2.3-1.1-4.2-.7-4.9-1.2-7.3-1.4-7.3-.1 0-.3-.7-.5-1.5-1.4-6.2-12-28.6-15.2-32.3-.9-.9-1.3-1.7-.9-1.7s-.2-1-1.4-2.2c-1.1-1.2-2.1-2.5-2.1-3-.2-1.4-.5-2.2-1.9-5.3-.7-1.7-1.4-4.4-1.5-6.2-.2-1.8-3.9-10.5-8.3-19.5-13.4-27.4-15.2-31.6-14.5-33.5 1.2-3.1 3.4-4.2 5.9-2.9 2.4 1.3 8.7 7.5 10.1 10.1.5.9 2.5 1.8 4.5 1.9 1.9.2 4.7 1.1 6.1 2.1 2.3 1.5 6.3 8.3 8 13.6.4 1.1 1.3 1.5 3 1.2 3.4-.7 7.9 4.1 10.7 11.4 5 12.9 4.9 12.8 15.6 22.4 2.3 2 3.4 1.6 3.4-1.3 0-1 .5-1.8 1.1-1.8.5 0 .8-.4.5-.9-.3-.5 0-1.1.7-1.4 1.4-.5 6.7 0 7.4.7.3.3.6 4.2.8 8.8.2 8 .5 8.7 6.1 19.3 5.3 10.1 5.9 11.6 6.1 18 .1 3.8-.3 7.5-.9 8.2-1.6 2-.7 17.6 1.7 27.8.2 1.1 1.2 5.4 2.1 9.5.8 4.1 2 8.3 2.5 9.2.5 1 .7 1.8.4 1.8-.3 0 .1 1.3 1 3 .8 1.6 1.5 3.2 1.5 3.5-.2 1.6 1.4 7.6 2.1 8.1.5.3.7.9.4 1.4-.3.5-.1 1.1.5 1.5.5.3 1 1.5 1 2.6 0 1 .4 2.7.9 3.7.5.9 2.1 4.7 3.5 8.4 1.4 3.6 3.8 9.5 5.5 13 3.5 7.6 5.9 14.3 6.5 18 .3 1.5.7 3.2 1 3.7.3.5.8 2.8 1.1 5.1.3 2.4.8 4.7 1.1 5.1.5.9.8 2.3 1.8 8 .6 3.5.9 4.9 2.7 12.9.5 2.5 1.2 5.4 1.4 6.5.2 1.1.4 2.1.5 2.2.3.3.3.3 1.5 4.8.4 1.6 1.2 3.6 1.8 4.2.5.7.7 1.3.3 1.3-.3 0 0 1.7.8 3.7.8 2.1 1.6 4.5 1.9 5.3.2.8.6 1.9.8 2.5.1.5.8 2.1 1.5 3.4.7 1.4 1.1 2.8.8 3.3-.3.4 0 .8.7.8s1 .3.7.6c-.4.3.1 2.2.9 4.2 2 4.8 3.4 8.6 3.5 9.2 0 .3.9 2.7 2 5.5 1.1 2.7 2.1 5.4 2.3 6 .2 1.1 2.1 6 3.4 9 1.1 2.4 3.5 8.8 3.7 9.5 0 .3.4 1.4.8 2.5 1 2.5 1.7 4.8 1.8 5.5 0 .3.5 1.4 1.1 2.5.6 1.1 1.2 2.2 1.2 2.5 0 .3 1.2 3.6 2.5 7.5 1.3 3.8 2.3 7.3 2.2 7.7-.1.5.3.8 1 .8.6 0 .9.3.5.6-.3.4.2 2.3 1.3 4.4 1.1 2.1 1.6 4 1.3 4.4-.4.3-.1.6.5.6.7 0 1.2.5 1.2 1.1 0 4.6 14.7 26.9 17.8 26.9.6 0 1.3.7 1.6 1.6.3.8 1 1.2 1.6.9.5-.3 1-.2 1 .4 0 .5 1.3 1.2 3 1.6 3.5.8 4.1.7 3.8-.3-.2-.4-.6-.6-1-.4-.7.2-1.2-1.3-1-3 .1-.3-.5-1.2-1.3-1.8-.8-.7-1.5-1.7-1.5-2.2 0-.6-1-2.4-2.2-4.1-1.3-1.8-1.6-2.8-.7-2.3.7.4.3-.2-1.1-1.4-1.4-1.2-1.8-1.9-1-1.5.8.4.5-.2-.7-1.2-2.4-2-7-9.9-5.2-8.7.8.5.9.3.3-.7-.5-.8-.9-3.4-1-5.8-.1-2.4-.7-4.7-1.4-5.1-.6-.4-1.2-1.1-1.3-1.6-.1-.5-.7-.8-1.3-.8-.6.1-1-.8-.8-2 .2-1.1.1-1.5-.2-.8-.8 1.7-2.5-1.5-4.3-8.1-.8-2.6-1.7-4.7-2.1-4.7-.8 0-1.1-5.1-1.4-18.2 0-4.9.2-8.8.5-8.8.7 0 .9-1.1 1.2-8.7.1-3.3.5-5.9.9-5.7.4.2 1-1.6 1.3-4.1.4-2.5 1.1-4.2 1.7-3.9.6.4.5-.3-.1-1.5-.9-1.6-.9-2.1 0-2.1.7 0 .9-.3.6-.7-.4-.3.1-1.5 1-2.6 1.3-1.5 1.4-1.9.3-1.3-1.3.7-1.3.6 0-.6.8-.7 1.6-2.2 1.8-3.3.2-1.1 1.1-3.1 2-4.5.9-1.4 1.7-2.7 1.8-3 0-.3.9-2.3 1.9-4.5.9-2.2 1.8-5.2 1.9-6.7 0-1.8.9-3.2 2.6-4 1.3-.7 3.2-2 4-2.8.9-.8 3.3-3 5.3-4.8 2-1.8 4.4-4.3 5.3-5.7.9-1.4 2.2-2.5 3-2.5.8 0 1.1-.6.7-1.5-.3-1 0-1.5.8-1.3.8.2 1.3-.4 1.3-1.4-.1-1 .4-1.4 1.2-1.1 1.7.6 4.6-1.6 3.8-2.9-.3-.5.2-.8 1.1-.6 1.1.2 2.6-1.1 4.1-3.5 1.6-2.4 2-3.7 1.2-3.7-.7 0-.2-.6 1.2-1.3 1.4-.8 2.4-1.9 2.3-2.5-.3-1.2 2.2-1.2 4.2-.1.9.5 2.9.5 4-.1.3-.1.8-.3 1.3-.4 2.9-.7 5.2-1.9 5.2-2.7 0-.6.4-.8.9-.5.4.3.6-.6.3-1.9-.2-1.5 0-2.5.7-2.5s.9-.5.5-1.3c-.6-.8-.3-.8.9.1 1.4 1.2 1.6 1.1 1.2-.7-.2-1.2 0-1.9.6-1.6.5.4 1.2-.2 1.6-1.2.4-1 1.5-2.4 2.5-3.1 1-.7 1.5-1.8 1.2-2.4-.4-.6.2-.6 1.5.1 1.2.7 2.1.8 2.1.2 0-.5 1.5-.7 3.3-.5 1.7.3 3.8.6 4.5.6.6.1 1.2.5 1.2 1s.9.4 2-.2c1.1-.6 2-.7 2-.3 0 .4.7-.2 1.6-1.3.8-1 1.3-1.2.9-.4-.4.8.1.6.9-.4.9-1.1 1.6-1.6 1.6-1 0 .5.5.1 1.1-.9.6-.9 1.4-1.5 2-1.2.5.4.9.2.9-.3s1.1-1.2 2.5-1.5c1.9-.3 2.9.1 3.7 1.6.9 1.7.8 1.9-.8 1.3-1.8-.6-1.8-.5-.1.8 1.2 1 1.5 1.6.7 2.1s-.5 1.1.7 2c1 .7 2.2 1.1 2.7.7.5-.3.6.2.3 1.2-.6 1.4-.3 1.7.8 1.2.9-.3 1.3-.2 1 .4-.3.6-.1 1 .5 1s.8.4.5 1c-.3.5.1 1 .9 1 1.4 0 2 1.1 1.8 3.1-.1.3 2.6.7 5.9.8 4.6.2 5.9-.1 5.3-1-.4-.8-.3-.9.4-.5.6.4 2.5 0 4.1-.8 2.4-1.3 3.1-1.3 4-.2.9 1.1.8 1.8-.6 3.1-1.6 1.7-1.6 1.7.7 1.1 1.4-.4 2-.4 1.4.1-1.5 1.1-3.9 5.7-2.5 4.9 1.1-.7 1.5.5 1.2 3.2-.2 1.2 2.2 4.2 3.3 4.2.6 0 4.6 3.2 7.7 6.2.9.9 2 1.4 2.3 1.1.3-.4.6-.1.6.5s1.5 2.7 3.3 4.5c1.7 1.9 4.8 5.3 6.7 7.6 1.9 2.4 4 4.9 4.7 5.6.7.7.9 1.5.6 1.9-.4.3.1.6 1 .6 1.1 0 1.7.8 1.7 2.2 0 1.9.2 2 1 .8.9-1.3 1-1.3 1.1 0 .1.8.1 1.8 0 2.3 0 .4.4.7.9.7.6 0 1 .7 1 1.5s.6 1.5 1.3 1.5c.8 0 .7.4-.3 1s-1.1 1-.2 1c.6 0 1.2 1.1 1.2 2.5s.5 2.5 1.1 2.5c.7 0 .9 1.8.7 4.9-.3 3.9-.1 5.1 1.4 6 1 .6 1.6 1.6 1.3 2.1-.3.5.3 1.5 1.2 2.2 1 .7 1.9 2 2.1 2.8.2.8.8 1.6 1.3 1.8.5.2.9 1.1.9 1.9 0 .9.6 1.3 1.4 1 1-.4 1.3-.1.9.9-.3.7 0 1.4.6 1.4s1 .3 1 .7c-.1.5 0 1 .1 1.3.1.3.3 1.2.5 2 .8 3.8 1.1 4.5 2 5.3.6.4.4 1.1-.5 1.7-.8.5-1 1-.4 1 .7 0 .9 1.1.6 2.5-.2 1.4 0 2.5.6 2.5.7 0 1.1 7 1.2 20.6 0 11.4.3 21.1.7 21.7.3.6.1.7-.5.3-1.1-.7-1.6.5-1.3 3.1.1.6-.4 1.5-1 1.9-.8.5-1 .2-.5-.7.4-.8 0-.5-.8.5-.9 1.1-1.7 3-1.7 4.3-.2 3.1-.3 3.6-1.2 5-1.2 1.9-1.9 5.3-2 10-.1 2.3-.6 4.1-1.1 4-.4-.1-1 .6-1.1 1.6-.2 1-.7 2.6-1.1 3.5-.4.9-.8 3.7-1 6.2-.2 2.5-.5 5.8-.7 7.4-.5 3.3.9 8.6 2.8 10.1.6.5 1.2 2.8 1.3 5 .1 3.9.8 15.3 1.1 16.7 0 .5.8.8 1.6.8s1.5.4 1.5 1c0 .5.4 1 1 1 1.1 0 6.5-5.2 7.1-6.8.8-2.3 15.2-17.3 19.2-20.1 6.1-4.2 9.6-4.7 14.3-2 3.8 2.1 15.5 3.5 17.9 2 .6-.3 1.5-.6 2-.8 4-.8 5.6-1.4 10.5-3.3 3-1.1 7.1-2.8 9-3.7 9.1-4.1 19.4-9 29.2-13.8 5.9-2.9 10.9-5 11.2-4.7.3.3.6 0 .6-.6 0-.7.4-1.2.9-1.2.9 0 21.3-11 22.1-11.9.7-.8 4.2-3 6.5-4 1.1-.5 5-3.1 8.7-5.7 8.5-6.2 9.2-6.7 15.8-10.9 3-1.9 6-3.9 6.7-4.5.7-.5 1.5-1 2-1 .4 0 2.3-1 4.2-2.3 30.7-20 39.6-27.8 47.7-41.5 7.1-11.9 8.3-14.4 8.4-17 0-3.2 3.2-8.4 4.7-7.8.7.3 1-.1.6-1-.3-.7.1-1.4.8-1.4.7 0 .9-.3.6-.7-.4-.3-.1-1.3.6-2.1 1-1.3.9-1.4-.3-.7-.8.4-.1-.7 1.5-2.6 1.7-1.8 2.1-2.7 1-1.9-1.1.8-.7 0 .9-1.7 1.5-1.7 2.5-3.6 2.1-4.2-.3-.6.1-1.4.9-1.7.9-.3 1.8-2.1 2.2-3.9.6-3.6 5.6-10 6.8-8.8.4.4.5-.7.1-2.4-.3-1.8-.1-3.5.5-3.8.6-.4.7.1.3 1.1-.4 1.2-.3 1.5.5 1 .7-.4 1.2-1.4 1.2-2.2 0-.8.5-1.4 1-1.4.6 0 1-.7 1-1.6 0-.8.4-1.3.9-.9.5.3 1.3 0 1.7-.6.4-.8.3-.9-.4-.5-2 1.2-1.3-.6 1-2.5 1.1-1.1 1.6-1.9 1-1.9-.7 0-1.2-.5-1.2-1.1 0-.5.4-.8.9-.5 1.3.8 3.4-2.1 2.5-3.5-.4-.8-.3-.9.4-.5s1.2.2 1.2-.4c0-.6.4-.8 1-.5.5.3.7 0 .4-.9-.3-.8.3-1.9 1.5-2.6 1.1-.6 2-1.6 1.8-2.3-.1-.7.3-1.1.8-1 .6 0 1.6-.5 2.3-1.3 1-1.1 1-1.4 0-1.4-.7 0 0-1.2 1.5-2.6 1.5-1.4 2.5-3 2.1-3.5-.3-.5 0-.8.8-.7.7.2 1.2-.2 1.1-.8-.1-.6 1.4-2.8 3.2-5 1.9-2.1 3.8-4.8 4.1-5.8.7-2 1.5-3.2 4.7-6.7.9-1 1.7-2.2 1.7-2.5 0-.3.9-1.9 2.1-3.5 1.1-1.6 2.2-3.5 2.3-4.3.1-.7 1.2-2.5 2.4-4 2-2.6 2.7-4.6 2.3-6.9 0-.4.4-.7.9-.7s.9-.4.7-.9c-.1-.5.7-1.7 1.8-2.6 1.1-.9 1.3-1.4.5-1-.8.4-.6-.1.5-1s1.9-1.7 1.7-1.8c-.8-.5 1.4-4.4 3.7-6.7 3.3-3.2 7-10.1 6.3-11.9-.3-.8 0-1.1.7-.7.6.4 1.1.1 1.1-.8s.5-1.6 1.1-1.6c.5 0 .8-.4.5-.9-.4-.5-.3-1.1.2-1.3 1.7-.7 12.2-23.8 13.8-30.3 1.2-4.8 1.4-5.9 1.6-8.3.1-1.2.5-2.2.8-2.2.7 0 .3-10.8-.5-14-.3-1.4-.7-3-.8-3.5-.2-.6-.6-1.6-1.1-2.3-.4-.7-.6-1.6-.3-1.8.3-.3.1-2-.4-3.7-1.7-5.9-2.2-22.5-.9-30.3.7-4.1 1.6-7.4 1.9-7.4 1.1 0 .8-15.5-.3-16.2-.8-.5-.8-.8-.1-.8 1.3 0 1.3-7.9.1-9.9-.7-1.1-.6-1.2.5-.6 1.2.7 1.1.6 0-.9-2-2.5-2.1-12.6-.1-14.6 1.7-1.7 9-2.4 9-.9 0 .6.5.7 1 .4.6-.3 1-.1 1 .4 0 .6.7 1.1 1.5 1.1 1.4 0 2 1.2 1.6 3.3-.1.5.3.6.9.2.6-.3.7-1.1.4-1.7-.4-.7-.2-.8.4-.4.7.4 1.2 1.3 1.2 2 0 .8 1 2.1 2.3 3 1.2.9 1.5 1.4.7 1.1-1-.5-1-.2.2.8 1.5 1.2 1.7 2.5 1.1 8.8-1.1 12.8-.8 19.6 1.1 21.4.9.9 1.6 1.4 1.6 1.1 0-.2 1.3-.1 3 .4 1.8.5 3.2.5 3.6-.1.3-.5.9-.7 1.4-.4.5.3 1.1.1 1.5-.5.4-.6 1.1-.8 1.6-.5.5.4.9.2.9-.2 0-.5 1.2-1 2.8-1.1 1.5-.1 2.9-.7 3-1.2.2-.6.8-.8 1.2-.5 1.1.7 8.6-6.5 8.2-7.7-.1-.5.2-.7.6-.4.5.3 1.8-.4 2.8-1.7 1.9-2.1 1.9-2.1-.1-.7-1.9 1.4-1.9 1.4-.6-.3.7-.9 1.9-1.7 2.6-1.7.7 0 1.9-.8 2.6-1.8 1.3-1.6 1.3-1.6-.5-.2-1.8 1.4-1.9 1.4-.7-.8.7-1.2 1.7-2 2.3-1.6.7.5.8.1.1-1.1-.7-1.2-.6-2.7.6-4.9.8-1.7 1.6-3.6 1.7-4.3.1-.7 1.2-2.6 2.4-4.3 1.2-1.6 1.8-3 1.3-3-.4-.1.3-.7 1.7-1.5s2-1.4 1.3-1.5c-1.6 0-1.1-1.6 2.2-8 1.6-3 3-5.7 3-6 .7-2.8 12.9-26 14.4-27.4 2.4-2.1 11-3.5 11.2-1.7.3 2.5.2 3.8-.5 7.3-.5 2.1-1.1 3.8-1.5 3.8-.6 0-1 1.7-1.3 5.7-.1.7-.4 1.3-.8 1.3s-.7.6-.8 1.2c-.2 2.3-.7 4.3-1.5 5.5-.5.7-.6 1.3-.2 1.3.3 0-.1 1.6-.9 3.5-.9 2-1.5 3.8-1.6 4 0 .3 0 .6-.1.7-.4 1.4-1 4.7-1.2 6.5-.1 1.3-.5 2.3-.9 2.3s-.5.7-.2 1.5c.9 2.3 2.8 1.8 4.6-1.3 2.1-3.4 4.6-6.6 8-10.2 1.4-1.6 2.4-3.1 2.2-3.3-.3-.2.2-1 1.1-1.7 1.2-1 1.8-1 3.2.1 1.5 1.2 1.6 1.2.8-.1-1.5-2.4-1.4-3.8.2-4.4.9-.4 1.1-.2.7.6-.4.7-.3.8.5.4.7-.5.9-1.6.5-2.8-.4-1.2-.2-1.8.4-1.4.5.3 1.8-.4 2.8-1.7 1.9-2.1 1.9-2.1-.1-.7-1.9 1.4-1.9 1.4-.6-.3.8-1 2-1.6 2.7-1.3.7.3 1.6.1 1.9-.5.4-.5.3-.8-.2-.7-.4.2-.8-.2-.8-.7 0-.6.3-.9.7-.8.5.2.8-.4.8-1.2 0-.8.4-1.5.9-1.5.6 0 2.1-1.1 3.5-2.4 1.5-1.3 3.6-2.2 4.8-2.1 1.3.1 2.9.3 3.7.4.7 0 1.1.7.7 1.6-.3.8-.1 1.5.5 1.5 1 0-1.4 5.4-3.6 8-.7.8-1.5 2.7-1.7 4.2-.5 2.5-.3 2.7 1.8 2.4 1.3-.3 3 .2 3.8.9.7.8 1.6 1.1 2 .8.3-.4.6.1.6 1.1 0 .9.5 1.4 1 1.1.6-.4.2.8-.9 2.6s-1.8 3.6-1.5 4.1c.3.4 0 .8-.6.8s-.8.4-.5 1c.3.5.3 1-.2 1-.9 0-3.3 4.8-3.3 6.7 0 .7-.5 1.3-1.1 1.3-.6 0-.9.7-.5 1.5.3 1-.1 1.5-1.2 1.5-1.3 0-1.4.2-.4.9 1.1.7 1.1.9-.2 1.4-.9.4-1.6 1.3-1.6 2.2 0 .8-.4 1.5-1 1.5-.5 0-1 .7-1 1.6 0 .9-.5 1.2-1.2.8-.8-.5-.9-.2-.5.9.4 1 0 2-1.1 2.6-1.2.7-1.7 2.5-1.9 6.8-.1 4-1 7.6-2.8 11.1-1.4 2.9-2.3 5.7-2 6.2.3.6.1 1-.5 1s-.8.4-.5 1c.3.5.1 1-.6 1s-1 .3-.6.6c1.1 1.1-12.1 12.7-13.4 11.8-.5-.3-.6.2-.3 1 .5 1.2 0 1.6-1.7 1.6-1.9 0-2.1.2-.9 1 1.3.8 1.2 1-.2 1-1 0-1.8.7-1.8 1.7 0 .9-.3 1.3-.7 1-.3-.4-1.4.7-2.4 2.3-1.1 1.7-2.3 3-2.9 3-.5 0-1 .5-1 1.1 0 .5-1.7 2.9-3.9 5.2-7.8 8.5-12.1 13.5-12.1 14.1 0 .5-2.6 3.6-7.7 9.4-1.8 2-3.3 4-3.3 4.3 0 1.4-5.8 7.8-6.4 7.1-.4-.3-.5 0-.2.8s-.8 4-2.6 7c-1.7 3-3.3 6.2-3.4 7-.5 3.4-1.4 6.3-2.8 9.1-1 1.9-1.1 2.7-.3 2.3.7-.3.4.1-.5.9-1 .8-1.8 2.2-1.8 3.1 0 .9-.6 1.9-1.3 2.2-.7.2-1.4 1.2-1.5 2.2-.4 3.4-.8 5.2-1.5 5.8-.4.4-.7 1.6-.7 2.6s-.5 1.8-1.1 1.8c-.6 0-.9.9-.6 2 .3 1.2-.1 2.3-1 2.8-.8.5-1.6 1.7-1.8 2.8-.2 1-.4 2.1-.5 2.4-.1.3-.2.8-.1 1.2 0 .5-.4.8-1 .8-.5 0-.7.4-.4 1 .3.5.1 1-.5 1s-1 .6-.9 1.2c.3 2.6-.1 4.9-.8 4.5-.5-.3-.8 1.9-.8 4.8s-.3 5.1-.7 4.9c-.5-.3-.8.2-.8 1 0 .9-.3 1.6-.7 1.6-.5 0-.9 1-.9 2.2-.4 4.9-.9 6.8-1.9 6.8-.5 0-.3.5.5 1 1.2.7 1.2 1 .1 1-.7 0-1.1.6-.8 1.5.4.8.2 1.7-.4 2-.5.4-.7 1.1-.4 1.6.4.5.2.9-.4.9-.5 0-.8.9-.6 2 .2 1.1.1 2-.4 2-.4 0-.8 1.1-.9 2.5-.4 5.3-.5 6-1.2 7-.4.5-1.3 3.1-2.1 5.7-.7 2.7-1.7 4.8-2.2 4.8-.5 0-.3.8.4 1.7 1 1.1 1 1.4.2.9-.9-.5-1.3.1-1.3 1.8 0 1.4-.4 2.6-1 2.6-.5 0-.7.7-.4 1.5.4.8-.1 2.6-.9 3.9-1 1.5-1.2 2.7-.6 3.3.7.7.5 2.2-.5 4.4-2.9 6.8-4.4 10.5-7.2 17.7-1.5 3.9-3.1 7.2-3.6 7.2-.4 0-.8.9-.8 1.9 0 1.1-.6 2.6-1.3 3.3-.7.7-2.5 3.8-4 6.8-1.4 3-4.4 8.6-6.6 12.5-2.2 3.8-5.2 9.2-6.7 12-4.2 7.6-5.3 9.6-7.9 14-1.3 2.2-3.2 5.7-4.2 7.7-1 2.1-2.1 3.8-2.5 3.8-.5 0-.8.7-.8 1.5s-.5 1.5-1.1 1.5c-.5 0-.7.4-.4 1 .3.5.1 1-.4 1-.6 0-1.1.6-1.1 1.3 0 .7-.6 1.9-1.2 2.5-.7.7-1.3 1.6-1.3 2-.1.4-1.8 3.3-3.8 6.4-2 3.1-3.7 5.9-3.7 6.2 0 .3-1.3 2.5-3 4.9-1.6 2.5-3 5-3 5.6 0 .6-.4 1.1-.8 1.1-.5 0-1.5 1.2-2.3 2.7-2.2 4.3-20 30.7-21.1 31.4-.5.3-.9.9-.9 1.3.1.3-.3 1.2-.9 1.9-.5.6-4.2 5.2-8 10.2-3.9 4.9-9.5 11.5-12.4 14.5-10.7 11.1-15.4 17.1-16 20.5-.4 1.9-1.1 3.5-1.6 3.5-.6 0-1 .4-1 1 0 1.1-5.1 5.9-20 18.8-2.5 2.2-5.8 5-7.3 6.3-5.3 4.5-7.4 6.4-14.2 12.4-3.8 3.3-8 7.1-9.5 8.5-1.5 1.4-6.5 5.9-11 10-12.7 11.4-23 21.9-23 23.3 0 .7-1.5 3.5-3.2 6.2-1.8 2.8-4.6 7.4-6.2 10.4-3 5.6-12.4 20.2-13.6 21.1-.3.3-1.7 2.4-3 4.7-1.3 2.4-2.7 4.3-3.1 4.3-.4 0-1.1 1-1.5 2.2-.3 1.2-1.1 2.6-1.5 3.2-3.5 4.1-11.9 15.5-11.9 16.1 0 .4-1.4 2.5-3.2 4.7-2.2 2.8-3.3 5.3-3.4 8.2-.2 2.2-.3 4.1-.4 4.1-.1 0-.3.8-.5 1.7-.2 1 .1 1.8.7 1.8.7 0 .7.4.1 1.2-.5.7-1.1 3.1-1.2 5.3-.2 3.8-.4 6-1.6 14.9-.4 2.6-.1 4.2.7 4.7 1.3.8 1.5 4.3.7 21.1-.2 5.4-.8 9.8-1.3 9.8-.4 0-.6 1.1-.4 2.5.3 1.4.2 2.5-.2 2.5-.3 0-.6 1.5-.5 3.3.1 1.7-.2 3.9-.6 4.7-.6 1.5-1.5 7.5-2.5 17.5-.3 2.7-.7 6.6-1 8.5-.3 1.9-.7 5.7-.9 8.5-.2 2.7-.6 6.1-1 7.5-.3 1.4-.8 4.7-1.1 7.5-.3 2.7-.7 6.6-.9 8.5-.3 1.9-.7 7.9-1.1 13.3l-.6 9.8 23.3-.2c14.2 0 26.9-.6 32.4-1.5 5-.7 11-1.6 13.5-1.9 3.7-.4 24.2-4.2 32.5-5.9 62.2-13 131.7-42.3 186.5-78.6 16.2-10.7 51.1-37 57.6-43.4.6-.6 4.8-4.5 9.4-8.6 24.6-22 57.3-58.2 74.5-82.4 1.1-1.6 3-4 4.1-5.5 2.8-3.4 25.4-37.9 25.4-38.7 0-.4 1.4-3 3.2-5.8 8.4-13.7 21.3-39.2 31.3-62.1 12.5-28.4 26-72.7 33-108 .3-1.7.8-4 1-5.3.8-3.8 2.4-13.5 3-17.7.4-2.2 1-6.7 1.5-10 2.2-14.5 2.5-23 2.5-74.5 0-48.3-.4-61.7-2-71-.2-1.4-.7-4.5-1-7-1.4-10.8-4.5-27.8-7.8-43-20.3-93-68.7-184.9-134.2-254.9-36.8-39.3-73.7-69.4-119-97.1-20.9-12.7-47-26.2-69-35.4-6-2.6-11.9-5.1-13-5.6-5.9-2.7-25.3-9.4-43.5-15.1-17.9-5.6-47.6-12.7-64.7-15.5-2.1-.4-4.2-.7-4.8-.8-.5-.2-3.2-.6-6-1-2.7-.4-7.7-1.1-11-1.6s-8.7-1.2-12-1.5c-3.3-.3-7.8-.8-10-1-11.3-1.3-21.7-1.8-49.7-2-16.8-.2-30.8-.2-31 0zm112.8 184.1c-.1 27.8.2 50.8.5 51 .4.2 24 .4 52.6.4l51.9.1-.2 5.5c-.1 3-.4 5.8-.8 6.1-.3.3-.1 1.2.5 2 .9 1 .8 1.7-.1 2.8-.7.9-.8 1.5-.2 1.5 1.2 0 1.1 1.8-.2 3.9-.7 1.1-.6 1.2.5.6 1.2-.7 1.2-.6.1.7-.7.9-.9 1.9-.5 2.1 1 .6.9 9.5-.1 10.4-.3.3-.1 1.2.5 2 .9 1 .8 1.7-.1 2.8-.7.8-.8 1.5-.3 1.5s.9.9 1 2c.1 1.1-.2 1.8-.6 1.6-.4-.3-.8.1-.8.9s.3 1.5.7 1.5c1 0 .8 3.3-.3 4.7-.5.7-.5 1.3 0 1.3s.9.9 1 2c.1 1.2-.3 1.8-.9 1.4-.6-.4-.6.2.1 1.5 1 1.8.9 2.2-.5 2.8-1 .3-24.5.6-52.3.6-27.8 0-50.8.4-51.1.8-.3.4-.5 49.1-.4 108.3 0 59.2-.2 107.6-.5 107.7-3 .6-11 .4-12.3-.3-1-.5-1.8-.5-1.8 0 0 .4-2.2.8-5 .8-2.7 0-5-.4-5-.9 0-.4-.6-.5-1.2 0-1.8 1.1-8.9 1.1-11 .1-1.1-.5-1.8-.5-1.8.1 0 1-7.2.7-8.9-.3-.5-.4-1.2-.3-1.5.2-.3.6-9 .8-11.7.3-.3-.1-.6-4.2-.7-9.1-.2-11.4-.2-9.8.1-21.5.1-5.5-.1-10.6-.6-11.3-.5-.6-.6-1.2-.1-1.2s.9-5.2.9-11.5-.4-11.5-.8-11.5c-.5 0-.5-.5-.1-1.2 1.1-1.7 1.1-22.8.1-22.8-.5 0-.5-.5-.1-1.2 1.1-1.7 1.1-22.8.1-22.8-.5 0-.5-.6-.1-1.2 1.2-1.9 1.1-99.9-.1-100.6-.5-.4-23.9-.7-51.8-.8-42.5 0-51-.3-51.7-1.4-.5-.9-.5-2 .2-2.7.6-.7.6-1.3.1-1.3-1 0-.8-6.4.2-8 .3-.6.3-1-.2-1-.4 0-.8-1.1-.8-2.5s.4-2.5.8-2.5c.5 0 .5-.6 0-1.3-1-1.5-1-3.5-.1-7 .3-1.5.4-2.7 0-2.7s-.7-1.1-.7-2.5.4-2.5.8-2.5c.5 0 .5-.6 0-1.3-1-1.6-1-7.7 0-10 .5-1 .4-1.7-.3-1.7-.6 0-.9-.4-.6-.8.7-1.1.8-7 .3-10.5l-.4-2.7h52.2c49 0 52.3-.1 52.7-1.8.2-.9.2-6.9.1-13.2-.2-6.3-.3-12-.3-12.5 0-.6.1-17.5.2-37.8l.2-36.7h61.3l-.1 50.6z"/><path d="M586.8 925.6c-2 4.7-2.5 7.1-1.8 8.3.8 1.4.9 1.3 1-.4 0-1.1.7-3.3 1.5-4.9 1.4-2.7 3.1-9.6 2.3-9.6-.2 0-1.5 3-3 6.6z"/></svg>